<svg width="19" height="19" viewBox="0 0 19 19" fill="none" xmlns="http://www.w3.org/2000/svg">
<path fill-rule="evenodd" clip-rule="evenodd" d="M3.26122 2.07408C2.93331 1.74616 2.40165 1.74616 2.07374 2.07408C1.74582 2.40199 1.74582 2.93365 2.07374 3.26157L8.63838 9.82621L8.04463 10.42L1.47999 3.85531C0.824162 3.19948 0.82416 2.13617 1.47999 1.48033C2.13582 0.824503 3.19914 0.824503 3.85497 1.48033L10.1016 7.72701L9.5079 8.32075L3.26122 2.07408ZM17.5111 16.3239L11.1873 10.0001L11.781 9.40637L18.1048 15.7302C18.7607 16.386 18.7607 17.4493 18.1048 18.1052C17.449 18.761 16.3857 18.761 15.7299 18.1052L9.40622 11.7815L9.99996 11.1878L16.3236 17.5114C16.6515 17.8393 17.1832 17.8393 17.5111 17.5114C17.839 17.1835 17.839 16.6519 17.5111 16.3239Z" fill="black"/>
<path fill-rule="evenodd" clip-rule="evenodd" d="M2.07371 16.324C1.7458 16.6519 1.7458 17.1836 2.07371 17.5115C2.40163 17.8394 2.93329 17.8394 3.2612 17.5115L9.68692 11.0857L10.2807 11.6795L3.85495 18.1052C3.19911 18.761 2.1358 18.761 1.47997 18.1052C0.824138 17.4494 0.824137 16.3861 1.47997 15.7302L7.72664 9.48356L8.32038 10.0773L2.07371 16.324ZM16.3236 2.07412L10.0769 8.32076L9.48318 7.72702L15.7298 1.48037C16.3857 0.824542 17.449 0.824545 18.1048 1.48038C18.7606 2.13621 18.7606 3.19952 18.1048 3.85535L11.6791 10.281L11.0854 9.6873L17.5111 3.26161C17.839 2.93369 17.839 2.40204 17.5111 2.07412C17.1831 1.7462 16.6515 1.7462 16.3236 2.07412Z" fill="black"/>
</svg>
